<svg version="1.1" xmlns="http://www.w3.org/2000/svg" xmlns:xlink="http://www.w3.org/1999/xlink" width="93.14642" height="93.62929" viewBox="0,0,93.14642,93.62929"><g transform="translate(-593.42679,-488.32049)"><g data-paper-data="{&quot;isPaintingLayer&quot;:true}" fill-rule="nonzero" stroke="none" stroke-width="0" stroke-linecap="butt" stroke-linejoin="miter" stroke-miterlimit="10" stroke-dasharray="" stroke-dashoffset="0" style="mix-blend-mode: normal"><path d="M593.42679,534.8937c0,-25.72167 20.85154,-46.57321 46.57321,-46.57321c25.72167,0 46.57321,20.85154 46.57321,46.57321c0,25.72167 -20.85154,46.57321 -46.57321,46.57321c-25.72167,0 -46.57321,-20.85154 -46.57321,-46.57321z" fill="#1fcdcd"/><path d="M673.56435,567.84152c-8.46191,8.70227 -20.29614,14.10826 -33.39301,14.10826c-13.79827,0 -26.19503,-6.00052 -34.72319,-15.53443c-7.36937,-19.76495 82.50467,-20.26179 68.1162,1.42618z" fill="#98fffa"/><path d="M618.97196,534.73792c0,-11.18334 9.06589,-20.24922 20.24922,-20.24922c11.18334,0 20.24922,9.06589 20.24922,20.24922c0,11.18334 -9.06589,20.24922 -20.24922,20.24922c-11.18334,0 -20.24922,-9.06589 -20.24922,-20.24922z" fill="#98fffa"/></g></g></svg>