<svg version="1.1" xmlns="http://www.w3.org/2000/svg" xmlns:xlink="http://www.w3.org/1999/xlink" width="1920" height="1200" viewBox="0,0,1920,1200"><defs><clipPath id="clip-1"><rect x="-640" y="-400" transform="scale(0.5,0.5)" width="3840" height="2400" fill="none" stroke="none" stroke-width="0.5" stroke-linecap="butt"/></clipPath></defs><g transform="translate(320,200)"><g clip-path="url(#clip-1)" data-paper-data="{&quot;isPaintingLayer&quot;:true}" fill-rule="nonzero" stroke-linejoin="miter" stroke-miterlimit="10" stroke-dasharray="" stroke-dashoffset="0" style="mix-blend-mode: normal"><path d="M0,800v-839h1310v839z" fill="#4dcbd0" stroke="none" stroke-width="1" stroke-linecap="butt"/><path d="M0,96v-115h1292v115z" fill="#ffffff" stroke="none" stroke-width="1" stroke-linecap="butt"/><g fill="#707070" stroke="none" stroke-width="1" stroke-linecap="butt" font-family="HelveticaNeue, Helvetica Neue" font-weight="400" text-anchor="start"><text transform="translate(29,60)" font-size="29" xml:space="preserve" fill="#707070" fill-rule="nonzero" stroke="none" stroke-width="1" stroke-linecap="butt" stroke-linejoin="miter" stroke-miterlimit="10" stroke-dasharray="" stroke-dashoffset="0" font-family="HelveticaNeue, Helvetica Neue" font-weight="400" text-anchor="start" style="mix-blend-mode: normal"><tspan x="0" dy="0">MIclass</tspan></text><text transform="translate(838,59)" font-size="21" xml:space="preserve" fill="#707070" fill-rule="nonzero" stroke="none" stroke-width="1" stroke-linecap="butt" stroke-linejoin="miter" stroke-miterlimit="10" stroke-dasharray="" stroke-dashoffset="0" font-family="HelveticaNeue, Helvetica Neue" font-weight="400" text-anchor="start" style="mix-blend-mode: normal"><tspan x="0" dy="0">Home</tspan></text><text transform="translate(1073,59)" font-size="21" xml:space="preserve" fill="#707070" fill-rule="nonzero" stroke="none" stroke-width="1" stroke-linecap="butt" stroke-linejoin="miter" stroke-miterlimit="10" stroke-dasharray="" stroke-dashoffset="0" font-family="HelveticaNeue, Helvetica Neue" font-weight="400" text-anchor="start" style="mix-blend-mode: normal"><tspan x="0" dy="0">Classes</tspan></text><text transform="translate(922,59)" font-size="21" xml:space="preserve" fill="#707070" fill-rule="nonzero" stroke="none" stroke-width="1" stroke-linecap="butt" stroke-linejoin="miter" stroke-miterlimit="10" stroke-dasharray="" stroke-dashoffset="0" font-family="HelveticaNeue, Helvetica Neue" font-weight="400" text-anchor="start" style="mix-blend-mode: normal"><tspan x="0" dy="0">Assignments</tspan></text><text transform="translate(1175,59)" font-size="21" xml:space="preserve" fill="#707070" fill-rule="nonzero" stroke="none" stroke-width="1" stroke-linecap="butt" stroke-linejoin="miter" stroke-miterlimit="10" stroke-dasharray="" stroke-dashoffset="0" font-family="HelveticaNeue, Helvetica Neue" font-weight="400" text-anchor="start" style="mix-blend-mode: normal"><tspan x="0" dy="0">Settings</tspan></text><text transform="translate(838,59)" font-size="21" xml:space="preserve" fill="#707070" fill-rule="nonzero" stroke="none" stroke-width="1" stroke-linecap="butt" stroke-linejoin="miter" stroke-miterlimit="10" stroke-dasharray="" stroke-dashoffset="0" font-family="HelveticaNeue, Helvetica Neue" font-weight="400" text-anchor="start" style="mix-blend-mode: normal"><tspan x="0" dy="0">Home</tspan></text><text transform="translate(1073,59)" font-size="21" xml:space="preserve" fill="#707070" fill-rule="nonzero" stroke="none" stroke-width="1" stroke-linecap="butt" stroke-linejoin="miter" stroke-miterlimit="10" stroke-dasharray="" stroke-dashoffset="0" font-family="HelveticaNeue, Helvetica Neue" font-weight="400" text-anchor="start" style="mix-blend-mode: normal"><tspan x="0" dy="0">Classes</tspan></text><text transform="translate(922,59)" font-size="21" xml:space="preserve" fill="#707070" fill-rule="nonzero" stroke="none" stroke-width="1" stroke-linecap="butt" stroke-linejoin="miter" stroke-miterlimit="10" stroke-dasharray="" stroke-dashoffset="0" font-family="HelveticaNeue, Helvetica Neue" font-weight="400" text-anchor="start" style="mix-blend-mode: normal"><tspan x="0" dy="0">Assignments</tspan></text><text transform="translate(1175,59)" font-size="21" xml:space="preserve" fill="#707070" fill-rule="nonzero" stroke="none" stroke-width="1" stroke-linecap="butt" stroke-linejoin="miter" stroke-miterlimit="10" stroke-dasharray="" stroke-dashoffset="0" font-family="HelveticaNeue, Helvetica Neue" font-weight="400" text-anchor="start" style="mix-blend-mode: normal"><tspan x="0" dy="0">Settings</tspan></text><text transform="translate(29,60)" font-size="29" xml:space="preserve" fill="#707070" fill-rule="nonzero" stroke="none" stroke-width="1" stroke-linecap="butt" stroke-linejoin="miter" stroke-miterlimit="10" stroke-dasharray="" stroke-dashoffset="0" font-family="HelveticaNeue, Helvetica Neue" font-weight="400" text-anchor="start" style="mix-blend-mode: normal"><tspan x="0" dy="0">MIclass</tspan></text></g><path d="M1149,66h-76" fill="none" stroke="#3eade8" stroke-width="5" stroke-linecap="round"/><text transform="translate(655,171)" font-size="32" xml:space="preserve" fill="#707070" fill-rule="nonzero" stroke="none" stroke-width="1" stroke-linecap="butt" stroke-linejoin="miter" stroke-miterlimit="10" stroke-dasharray="" stroke-dashoffset="0" font-family="HelveticaNeue, Helvetica Neue" font-weight="400" text-anchor="start" style="mix-blend-mode: normal"><tspan x="0" dy="0">Halton Waldorf School Chat</tspan></text><g><path d="M102,774c-18.22539,0 -33,0 -33,0v-107c0,0 14.77461,0 33,0h1107c18.22539,0 33,0 33,0v107c0,0 -14.77461,0 -33,0z" fill="#ffffff" stroke="none" stroke-width="1" stroke-linecap="butt"/><text transform="translate(320,732)" font-size="32" xml:space="preserve" fill="#f0e4e4" fill-rule="nonzero" stroke="none" stroke-width="1" stroke-linecap="butt" stroke-linejoin="miter" stroke-miterlimit="10" stroke-dasharray="" stroke-dashoffset="0" font-family="HelveticaNeue, Helvetica Neue" font-weight="400" text-anchor="start" style="mix-blend-mode: normal"><tspan x="0" dy="0">Type a message here</tspan></text><path d="M101.5,749c-6.07513,0 -11,0 -11,0v-61c0,0 4.92487,0 11,0h38c6.07513,0 11,0 11,0v61c0,0 -4.92487,0 -11,0z" fill="#ffffff" stroke="none" stroke-width="1" stroke-linecap="butt"/><path d="M120.5,739v-41" fill="none" stroke="#707070" stroke-width="5" stroke-linecap="round"/><path d="M121,698l17,18" fill="none" stroke="#707070" stroke-width="5" stroke-linecap="round"/><path d="M120,698l-17,18" fill="none" stroke="#707070" stroke-width="5" stroke-linecap="round"/></g><g stroke-linecap="butt"><g stroke="none" stroke-width="1"><g><path d="M1163,208z" fill="#ffffff"/><path d="M659,208h504z" fill="#707070"/></g></g><g stroke="none" stroke-width="1"><path d="M1114.92387,320.79726c-2.5591,-1.18207 -4.30774,-3.62313 -4.60357,-6.42647c-0.29583,-2.80334 0.90477,-5.55564 3.16077,-7.24583l31.12412,-23.31954c2.30497,-1.72776 5.36055,-2.08369 8.00094,-0.93199c2.64038,1.1517 4.45825,3.63335 4.76002,6.49813l4.18173,39.62687c0.30284,2.86467 -0.95698,5.67111 -3.29881,7.34857c-2.34183,1.67746 -5.4044,1.96717 -8.01923,0.75858z" fill="none"/><path d="M1115.29543,313.84528c0.05379,0.50969 0.32968,1.76483 1.72638,2.40994l35.30744,16.30812c1.43163,0.66127 2.57951,0.02108 3.00658,-0.28485c0.42708,-0.30593 1.40253,-1.1868 1.23703,-2.75509l-4.18172,-39.62678c-0.16549,-1.56829 -1.30333,-2.22615 -1.78484,-2.43622c-0.48153,-0.21004 -1.73775,-0.59653 -2.99984,0.34901l-31.12569,23.31866c-1.23129,0.92245 -1.23912,2.20753 -1.18534,2.71722M1110.32044,314.37028c-0.27924,-2.64619 0.73559,-5.42894 3.16085,-7.2459l31.12571,-23.31866c4.97187,-3.72481 12.10718,-0.61219 12.75914,5.5659l4.18172,39.62678c0.65196,6.17808 -5.67648,10.7115 -11.31633,8.10651l-35.30743,-16.30812c-2.75109,-1.2707 -4.32443,-3.78033 -4.60367,-6.42651z" fill="#707070"/></g><g fill="none" stroke-width="5"><path d="M982.204,322c-21.5391,0 -39,0 -39,0v-114c0,0 17.4609,0 39,0h139c21.53911,0 39,0 39,0v114c0,0 -17.46089,0 -39,0z" stroke="none"/><path d="M982.204,319.5c-20.1584,0 -36.5,0 -36.5,0v-109c0,0 16.3416,0 36.5,0h139c20.15839,0 36.5,0 36.5,0v109c0,0 -16.34161,0 -36.5,0z" stroke="#707070"/></g><path d="M1114.92387,320.79726c-2.5591,-1.18207 -4.30774,-3.62313 -4.60357,-6.42647c-0.29583,-2.80334 0.90477,-5.55564 3.16077,-7.24583l31.12412,-23.31954c2.30497,-1.72776 5.36055,-2.08369 8.00094,-0.93199c2.64038,1.1517 4.45825,3.63335 4.76002,6.49813l4.18173,39.62687c0.30284,2.86467 -0.95698,5.67111 -3.29881,7.34857c-2.34183,1.67746 -5.4044,1.96717 -8.01923,0.75858z" fill="#31c7db" stroke="none" stroke-width="1"/><path d="M987.204,322c-21.5391,0 -39,0 -39,0v-114c0,0 17.4609,0 39,0h134c21.53911,0 39,0 39,0v114c0,0 -17.46089,0 -39,0z" fill="#31c7db" stroke="none" stroke-width="1"/><text transform="translate(1054.204,284.5)" font-size="51" xml:space="preserve" fill="#707070" fill-rule="nonzero" stroke="none" stroke-width="1" stroke-linecap="butt" stroke-linejoin="miter" stroke-miterlimit="10" stroke-dasharray="" stroke-dashoffset="0" font-family="HelveticaNeue, Helvetica Neue" font-weight="400" text-anchor="start" style="mix-blend-mode: normal"><tspan x="0" dy="0">Hey.</tspan></text></g><g stroke-linecap="butt"><g stroke="none" stroke-width="1"><path d="M182.19105,448.15697c2.256,1.69019 3.4566,4.44248 3.16077,7.24582c-0.29583,2.80334 -2.04447,5.2444 -4.60357,6.42647l-35.30606,16.30932c-2.61483,1.20859 -5.67741,0.91888 -8.01924,-0.75858c-2.34183,-1.67746 -3.60165,-4.4839 -3.29881,-7.34857l4.18173,-39.62687c0.30177,-2.86478 2.11964,-5.34644 4.76002,-6.49813c2.64038,-1.1517 5.69597,-0.79577 8.00093,0.93199z" fill="none"/><path d="M180.37657,454.87826c0.05379,-0.50969 0.04596,-1.79477 -1.18531,-2.7172l-31.12573,-23.31865c-1.26208,-0.94552 -2.51829,-0.55905 -2.99981,-0.349c-0.48153,0.21004 -1.61937,0.86791 -1.78486,2.43619l-4.18172,39.62678c-0.16549,1.56829 0.80996,2.44916 1.23702,2.75511c0.42708,0.30593 1.57496,0.94612 3.00661,0.28484l35.30741,-16.30813c1.39671,-0.64512 1.6726,-1.90026 1.72639,-2.40994M185.35157,455.40326c-0.27925,2.64619 -1.85258,5.15582 -4.60367,6.42652l-35.30743,16.30813c-5.63985,2.60498 -11.96828,-1.92843 -11.31632,-8.10652l4.18172,-39.62678c0.65196,-6.17808 7.78726,-9.29071 12.75914,-5.56588l31.12572,23.31865c2.42526,1.81695 3.44009,4.5997 3.16085,7.24589z" fill="#707070"/></g><g fill="none" stroke-width="5"><path d="M168.5,463c-21.53911,0 -39,0 -39,0v-114c0,0 17.46089,0 39,0h179c21.53911,0 39,0 39,0v114c0,0 -17.46089,0 -39,0z" stroke="none"/><path d="M168.5,460.5c-20.15839,0 -36.5,0 -36.5,0v-109c0,0 16.34161,0 36.5,0h179c20.15839,0 36.5,0 36.5,0v109c0,0 -16.34161,0 -36.5,0z" stroke="#707070"/></g><path d="M182.19105,448.15697c2.256,1.69019 3.4566,4.44248 3.16077,7.24582c-0.29583,2.80334 -2.04447,5.2444 -4.60357,6.42647l-35.30606,16.30932c-2.61483,1.20859 -5.67741,0.91888 -8.01924,-0.75858c-2.34183,-1.67746 -3.60165,-4.4839 -3.29881,-7.34857l4.18173,-39.62687c0.30177,-2.86478 2.11964,-5.34644 4.76002,-6.49813c2.64038,-1.1517 5.69597,-0.79577 8.00093,0.93199z" fill="#31c7db" stroke="none" stroke-width="1"/><path d="M168.5,463c-21.53911,0 -39,0 -39,0v-114c0,0 17.46089,0 39,0h171c21.53911,0 39,0 39,0v114c0,0 -17.46089,0 -39,0z" fill="#31c7db" stroke="none" stroke-width="1"/><text transform="translate(257.704,425.5)" font-size="51" xml:space="preserve" fill="#707070" fill-rule="nonzero" stroke="none" stroke-width="1" stroke-linecap="butt" stroke-linejoin="miter" stroke-miterlimit="10" stroke-dasharray="" stroke-dashoffset="0" font-family="HelveticaNeue, Helvetica Neue" font-weight="400" text-anchor="start" style="mix-blend-mode: normal"><tspan x="0" dy="0">Hello</tspan></text></g><g stroke="none" stroke-width="1" stroke-linecap="butt"><path d="M1172,269.5c0,-25.12895 20.37105,-45.5 45.5,-45.5c25.12895,0 45.5,20.37105 45.5,45.5c0,25.12896 -20.37105,45.5 -45.5,45.5c-25.12895,0 -45.5,-20.37104 -45.5,-45.5z" fill="#2aa4a8"/><path d="M1253.58,296.572c-8.42374,11.37662 -21.66206,18.18518 -35.81591,18.42034c-14.15386,0.23516 -27.61106,-6.12984 -36.40809,-17.22034c-1.207,-25.283 75.079,-25.222 72.224,-1.2z" fill="#50dcef"/><path d="M1197,264.5c0,-11.32183 9.17817,-20.5 20.5,-20.5c11.32183,0 20.5,9.17817 20.5,20.5c0,11.32184 -9.17817,20.5 -20.5,20.5c-11.32183,0 -20.5,-9.17816 -20.5,-20.5z" fill="#50dcef"/><text transform="translate(1217,336)" font-size="22" xml:space="preserve" fill="#707070" fill-rule="nonzero" stroke="none" stroke-width="1" stroke-linecap="butt" stroke-linejoin="miter" stroke-miterlimit="10" stroke-dasharray="" stroke-dashoffset="0" font-family="HelveticaNeue, Helvetica Neue" font-weight="400" text-anchor="start" style="mix-blend-mode: normal"><tspan x="0" dy="0">You.</tspan></text></g><g stroke="none" stroke-width="1" stroke-linecap="butt"><g><path d="M24,411.5c0,-25.12896 20.37104,-45.5 45.5,-45.5c25.12896,0 45.5,20.37104 45.5,45.5c0,25.12896 -20.37104,45.5 -45.5,45.5c-25.12896,0 -45.5,-20.37104 -45.5,-45.5z" fill="#2aa4a8"/><path d="M105.58,438.572c-8.42374,11.37662 -21.66206,18.18518 -35.81592,18.42034c-14.15385,0.23516 -27.61106,-6.12984 -36.40808,-17.22034c-1.207,-25.283 75.079,-25.222 72.224,-1.2z" fill="#50dcef"/><path d="M49,406.5c0,-11.32184 9.17817,-20.5 20.5,-20.5c11.32183,0 20.5,9.17816 20.5,20.5c0,11.32184 -9.17817,20.5 -20.5,20.5c-11.32183,0 -20.5,-9.17816 -20.5,-20.5z" fill="#50dcef"/></g><text transform="translate(70,476)" font-size="15" xml:space="preserve" fill="#707070" fill-rule="nonzero" stroke="none" stroke-width="1" stroke-linecap="butt" stroke-linejoin="miter" stroke-miterlimit="10" stroke-dasharray="" stroke-dashoffset="0" font-family="HelveticaNeue, Helvetica Neue" font-weight="400" text-anchor="start" style="mix-blend-mode: normal"><tspan x="0" dy="0">Teacher</tspan></text></g></g></g></svg>