<svg version="1.1" xmlns="http://www.w3.org/2000/svg" xmlns:xlink="http://www.w3.org/1999/xlink" width="1173.07454" height="1404.91439" viewBox="0,0,1173.07454,1404.91439"><g transform="translate(-54.96423,-217.43922)"><g data-paper-data="{&quot;isPaintingLayer&quot;:true}" fill-rule="nonzero" stroke="none" stroke-linecap="butt" stroke-linejoin="miter" stroke-miterlimit="10" stroke-dasharray="" stroke-dashoffset="0" style="mix-blend-mode: normal"><path d="M54.96423,646.54784c0,-44.45195 0,-397.60686 0,-423.98686c0,-3.07801 1.90775,-5.12176 5.53663,-5.12176c68.60394,0 752.33829,0 790.36145,0c3.5685,0 5.81009,2.13213 5.81009,5.32739c0,26.88773 0,380.54491 0,424.00028c0,2.85164 -2.10714,4.36747 -5.4815,4.36747c-38.56428,0 -719.94922,0 -790.36144,0c-3.84224,0 -5.86522,-1.5935 -5.86522,-4.58653z" fill-opacity="0.39608" fill="#002e2e" stroke-width="0"/><path d="M870.77504,647.04334c0,-44.45195 0,-397.60686 0,-423.98686c0,-3.07801 0.85015,-5.12176 2.46728,-5.12176c30.57185,0 335.26312,0 352.20731,0c1.59022,0 2.58914,2.13213 2.58914,5.32739c0,26.88773 0,380.54491 0,424.00028c0,2.85164 -0.939,4.36747 -2.44271,4.36747c-17.18533,0 -320.82964,0 -352.2073,0c-1.71221,0 -2.61371,-1.5935 -2.61371,-4.58653z" fill-opacity="0.39608" fill="#002e2e" stroke-width="0"/><path d="M668.07234,1103.49979c0,-44.45195 0,-397.60686 0,-423.98686c0,-3.07801 1.31821,-5.12176 3.82567,-5.12176c47.40362,0 519.84706,0 546.12012,0c2.46574,0 4.01463,2.13213 4.01463,5.32739c0,26.88773 0,380.54491 0,424.00028c0,2.85164 -1.45598,4.36747 -3.78758,4.36747c-26.64696,0 -497.46702,0 -546.12011,0c-2.65489,0 -4.05272,-1.5935 -4.05272,-4.58653z" fill-opacity="0.39608" fill="#002e2e" stroke-width="0"/><path d="M58.95823,1103.99529c0,-44.45195 0,-397.60686 0,-423.98686c0,-3.07801 1.4111,-5.12176 4.09528,-5.12176c50.74428,0 556.48204,0 584.60663,0c2.63951,0 4.29754,2.13213 4.29754,5.32739c0,26.88773 0,380.54491 0,424.00028c0,2.85164 -1.55858,4.36747 -4.0545,4.36747c-28.52484,0 -532.52483,0 -584.60663,0c-2.84199,0 -4.33833,-1.5935 -4.33833,-4.58653z" fill-opacity="0.39608" fill="#002e2e" stroke-width="0"/><path d="M61.46574,1561.45775c0,-44.45195 0,-397.60686 0,-423.98686c0,-3.07801 2.76527,-5.12176 8.02529,-5.12176c99.44077,0 1090.50735,0 1145.62157,0c5.17251,0 8.42167,2.13213 8.42167,5.32739c0,26.88773 0,380.54491 0,424.00028c0,2.85164 -3.05428,4.36747 -7.94538,4.36747c-55.89856,0 -1043.55969,0 -1145.62155,0c-5.56929,0 -8.50158,-1.5935 -8.50158,-4.58653z" fill-opacity="0.39608" fill="#002e2e" stroke-width="0"/><text transform="translate(472.58258,1616.1036) scale(0.5,0.5)" font-size="40" xml:space="preserve" fill="#ffffff" fill-rule="nonzero" stroke="none" stroke-width="1" stroke-linecap="butt" stroke-linejoin="miter" stroke-miterlimit="10" stroke-dasharray="" stroke-dashoffset="0" font-family="Sans Serif" font-weight="normal" text-anchor="start" style="mix-blend-mode: normal"><tspan x="0" dy="0">MIclass V1.0 2022 DarkMode=on</tspan></text></g></g></svg>