<svg version="1.1" xmlns="http://www.w3.org/2000/svg" xmlns:xlink="http://www.w3.org/1999/xlink" width="45.08464" height="45.04504" viewBox="0,0,45.08464,45.04504"><g transform="translate(-1176.47748,-343.47749)"><g data-paper-data="{&quot;isPaintingLayer&quot;:true}" fill-rule="nonzero" stroke-linejoin="miter" stroke-miterlimit="10" stroke-dasharray="" stroke-dashoffset="0" style="mix-blend-mode: normal"><path d="M1176.47748,384.10557c0,-9.39079 0,-30.91028 0,-36.1441c0,-2.24341 1.73566,-4.48398 4.49901,-4.48398c9.43429,0 30.84721,0 36.06492,0c2.24218,0 4.48112,2.26311 4.48112,4.52357c0,5.24656 0.03959,26.7248 0.03959,36.10451c0,2.7155 -2.43701,4.41696 -4.79782,4.41696c-5.28863,0 -26.31257,0 -35.70863,0c-2.80854,0 -4.57818,-1.70136 -4.57818,-4.41696z" fill="#ffffff" stroke="none" stroke-width="0" stroke-linecap="butt"/><path d="M1185.05541,366.45572h30.44113" fill="none" stroke="#000000" stroke-width="5" stroke-linecap="round"/><path d="M1192.25557,376.02553l-9.7521,-9.38753l10.66351,-10.66351" fill="none" stroke="#000000" stroke-width="5" stroke-linecap="round"/></g></g></svg>