<svg version="1.1" xmlns="http://www.w3.org/2000/svg" xmlns:xlink="http://www.w3.org/1999/xlink" width="495.4955" height="162.16216" viewBox="0,0,495.4955,162.16216"><g transform="translate(-392.25225,-318.91892)"><g data-paper-data="{&quot;isPaintingLayer&quot;:true}" fill-rule="nonzero" stroke="none" stroke-linecap="butt" stroke-linejoin="miter" stroke-miterlimit="10" stroke-dasharray="" stroke-dashoffset="0" style="mix-blend-mode: normal"><path d="M392.25225,481.08108v-162.16216h495.4955v162.16216z" fill="#ffffff" stroke-width="0"/><path d="M424.24737,398.78655c0,-25.72167 20.85154,-46.57321 46.57321,-46.57321c25.72167,0 46.57321,20.85154 46.57321,46.57321c0,25.72167 -20.85154,46.57321 -46.57321,46.57321c-25.72167,0 -46.57321,-20.85154 -46.57321,-46.57321z" fill="#1fcdcd" stroke-width="0"/><path d="M504.38493,431.73437c-8.46191,8.70227 -20.29614,14.10826 -33.39301,14.10826c-13.79827,0 -26.19503,-6.00052 -34.72319,-15.53443c-7.36937,-19.76495 82.50467,-20.26179 68.1162,1.42618z" fill="#98fffa" stroke-width="0"/><path d="M449.79254,398.63077c0,-11.18334 9.06589,-20.24922 20.24922,-20.24922c11.18334,0 20.24922,9.06589 20.24922,20.24922c0,11.18334 -9.06589,20.24922 -20.24922,20.24922c-11.18334,0 -20.24922,-9.06589 -20.24922,-20.24922z" fill="#98fffa" stroke-width="0"/><text transform="translate(572.06351,358.16893) scale(0.69502,0.69502)" font-size="40" xml:space="preserve" fill="#000000" fill-rule="nonzero" stroke="none" stroke-width="1" stroke-linecap="butt" stroke-linejoin="miter" stroke-miterlimit="10" stroke-dasharray="" stroke-dashoffset="0" font-family="Sans Serif" font-weight="normal" text-anchor="start" style="mix-blend-mode: normal"><tspan x="0" dy="0">Signed in as:</tspan></text><text transform="translate(564.07023,428.91893) scale(0.97671,0.97671)" font-size="40" xml:space="preserve" fill="#000000" fill-rule="nonzero" stroke="none" stroke-width="1" stroke-linecap="butt" stroke-linejoin="miter" stroke-miterlimit="10" stroke-dasharray="" stroke-dashoffset="0" font-family="Sans Serif" font-weight="normal" text-anchor="start" style="mix-blend-mode: normal"><tspan x="0" dy="0">Alexander</tspan></text></g></g></svg>