<svg version="1.1" xmlns="http://www.w3.org/2000/svg" xmlns:xlink="http://www.w3.org/1999/xlink" width="1291.29129" height="810.81081" viewBox="0,0,1291.29129,810.81081"><g transform="translate(5.64563,5.40539)"><g data-paper-data="{&quot;isPaintingLayer&quot;:true}" fill-rule="nonzero" stroke="none" stroke-linecap="butt" stroke-linejoin="miter" stroke-miterlimit="10" stroke-dasharray="" stroke-dashoffset="0" style="mix-blend-mode: normal"><path d="M-5.64562,805.40543v-810.81081h1291.29129v810.81081z" fill="#1fcdcd" stroke-width="0"/><path d="M630.61608,463.98128c0,-5.18259 4.20132,-9.38392 9.38392,-9.38392c5.18259,0 9.38392,4.20133 9.38392,9.38392c0,5.18259 -4.20132,9.38392 -9.38392,9.38392c-5.18259,0 -9.38392,-4.20132 -9.38392,-9.38392z" fill="#006565" stroke-width="0"/><path d="M669.00483,463.98129c0,-5.18259 4.20132,-9.38392 9.38392,-9.38392c5.18259,0 9.38392,4.20132 9.38392,9.38392c0,5.18259 -4.20132,9.38392 -9.38392,9.38392c-5.18259,0 -9.38392,-4.20132 -9.38392,-9.38392z" fill="#006565" stroke-width="0"/><path d="M553.83857,449.47886c0,-5.18259 4.20132,-9.38392 9.38392,-9.38392c5.18259,0 9.38392,4.20132 9.38392,9.38392c0,5.18259 -4.20132,9.38392 -9.38392,9.38392c-5.18259,0 -9.38392,-4.20132 -9.38392,-9.38392z" fill="#006565" stroke-width="0"/><path d="M707.3936,463.98129c0,-5.18259 4.20132,-9.38392 9.38392,-9.38392c5.18259,0 9.38392,4.20132 9.38392,9.38392c0,5.18259 -4.20132,9.38392 -9.38392,9.38392c-5.18259,0 -9.38392,-4.20132 -9.38392,-9.38392z" fill="#006565" stroke-width="0"/><path d="M592.22733,450.33195c0,-5.18259 4.20132,-9.38392 9.38392,-9.38392c5.18259,0 9.38392,4.20132 9.38392,9.38392c0,5.18259 -4.20132,9.38392 -9.38392,9.38392c-5.18259,0 -9.38392,-4.20132 -9.38392,-9.38392z" fill="#006565" stroke-width="0"/><text transform="translate(581.40624,408.75456) scale(0.75879,0.75879)" font-size="40" xml:space="preserve" fill="#006565" fill-rule="nonzero" stroke="none" stroke-width="1" stroke-linecap="butt" stroke-linejoin="miter" stroke-miterlimit="10" stroke-dasharray="" stroke-dashoffset="0" font-family="Sans Serif" font-weight="normal" text-anchor="start" style="mix-blend-mode: normal"><tspan x="0" dy="0">Loading</tspan></text></g></g></svg>