<svg version="1.1" xmlns="http://www.w3.org/2000/svg" xmlns:xlink="http://www.w3.org/1999/xlink" width="279.01243" height="152.491" viewBox="0,0,279.01243,152.491"><g transform="translate(-209.25383,-205.74995)"><g data-paper-data="{&quot;isPaintingLayer&quot;:true}" fill-rule="nonzero" stroke="none" stroke-linecap="butt" stroke-linejoin="miter" stroke-miterlimit="10" stroke-dasharray="" stroke-dashoffset="0" style="mix-blend-mode: normal"><path d="M261.53954,353.91524c0,-35.70807 0,-121.15741 0,-142.98106c0,-3.05875 1.76927,-5.18422 4.99264,-5.18422c31.19561,0 198.58594,0 216.46625,0c3.04263,0 5.26784,2.26446 5.26784,5.4959c0,22.31826 0,105.71495 0,142.37822c0,2.99987 -1.78772,4.61688 -4.30989,4.61688c-16.49627,0 -187.32422,0 -217.78344,0c-2.9955,0 -4.6334,-1.51249 -4.6334,-4.32572z" fill="#ffffff" stroke-width="0"/><path d="M211.14328,276.13999c8.28003,-4.28789 56.79145,-29.41 56.79145,-29.41l0.80836,72.63151c0,0 -49.97169,-32.95281 -58.03117,-38.26747c-2.12078,-1.3985 -1.88631,-3.75381 0.43136,-4.95404z" fill="#ffffff" stroke-width="0"/><text transform="translate(288.84029,235.18803) scale(0.6607,0.6607)" font-size="40" xml:space="preserve" fill="#000000" fill-rule="nonzero" stroke="none" stroke-width="1" stroke-linecap="butt" stroke-linejoin="miter" stroke-miterlimit="10" stroke-dasharray="" stroke-dashoffset="0" font-family="Sans Serif" font-weight="normal" text-anchor="start" style="mix-blend-mode: normal"><tspan x="0" dy="0">Coming Soon!</tspan></text><text transform="translate(277.41531,270.04465) scale(0.5,0.5)" font-size="40" xml:space="preserve" fill="#000000" fill-rule="nonzero" stroke="none" stroke-width="1" stroke-linecap="butt" stroke-linejoin="miter" stroke-miterlimit="10" stroke-dasharray="" stroke-dashoffset="0" font-family="Sans Serif" font-weight="normal" text-anchor="start" style="mix-blend-mode: normal"><tspan x="0" dy="0">This feature has not </tspan><tspan x="0" dy="46.15px">been developed yet.</tspan></text></g></g></svg>