<svg version="1.1" xmlns="http://www.w3.org/2000/svg" xmlns:xlink="http://www.w3.org/1999/xlink" width="1246.24625" height="674.17417" viewBox="0,0,1246.24625,674.17417"><g transform="translate(-17.62763,-116.967)"><g data-paper-data="{&quot;isPaintingLayer&quot;:true}" fill-rule="nonzero" stroke="none" stroke-linecap="butt" stroke-linejoin="miter" stroke-miterlimit="10" stroke-dasharray="" stroke-dashoffset="0" style="mix-blend-mode: normal"><path d="M17.62763,791.14117v-674.17417h1246.24625v674.17417z" fill-opacity="0.40392" fill="#4d9490" stroke-width="0"/><text transform="translate(372.29733,190.30328) scale(1.34592,1.34592)" font-size="40" xml:space="preserve" fill="#ffffff" fill-rule="nonzero" stroke="none" stroke-width="1" stroke-linecap="butt" stroke-linejoin="miter" stroke-miterlimit="10" stroke-dasharray="" stroke-dashoffset="0" font-family="Sans Serif" font-weight="normal" text-anchor="start" style="mix-blend-mode: normal"><tspan x="0" dy="0">Example assignment</tspan></text><path d="M72.57057,730.77726c0,-46.73396 0,-449.07405 0,-475.35391c0,-2.66697 1.71396,-4.38281 4.90167,-4.38281c40.56796,0 319.8264,0 342.72754,0c2.94671,0 4.94736,1.54977 4.94736,4.47338c0,46.99104 0,448.90098 0,475.26335c0,2.68706 -2.00065,4.41735 -4.94736,4.41735c-22.90114,0 -302.15958,0 -342.72754,0c-3.18773,0 -4.90167,-1.52997 -4.90167,-4.41735z" fill-opacity="0.8549" fill="#ffffff" stroke-width="0"/><text transform="translate(175.07184,286.68451) scale(0.63873,0.63873)" font-size="40" xml:space="preserve" fill="#000000" fill-rule="nonzero" stroke="none" stroke-width="1" stroke-linecap="butt" stroke-linejoin="miter" stroke-miterlimit="10" stroke-dasharray="" stroke-dashoffset="0" font-family="Sans Serif" font-weight="normal" text-anchor="start" style="mix-blend-mode: normal"><tspan x="0" dy="0">Assignment</tspan></text><g stroke-width="0"><path d="M203.30706,596.61404c0,0 0,-198.50448 0,-226.98386c0,-5.17521 4.65683,-12.19983 12.32491,-12.19983c31.71323,0 114.93203,0 133.24896,0c6.96299,0 13.64178,6.61639 13.64178,14.16621c0,25.02689 0,164.08842 0,210.17585c0,9.32318 -6.15175,14.84162 -12.68665,14.84162c-22.20889,0 -146.529,0 -146.529,0z" fill="#002f2f"/><path d="M135.19499,617.5583c0,-42.64682 0,-193.17332 0,-216.77103c0,-6.09527 4.53297,-11.16616 12.03304,-11.16616c32.47735,0 120.5918,0 137.20015,0c5.28745,0 9.98245,5.43011 9.98245,11.87294c0,24.142 0,173.64104 0,216.08534c0,7.11819 -4.31859,11.22541 -9.26611,11.22541c-16.2792,0 -106.2477,0 -138.46744,0c-7.17159,0 -11.4821,-4.11485 -11.4821,-11.2465z" fill="#006565"/></g><text transform="translate(439.54955,231.40015) scale(0.5,0.5)" font-size="40" xml:space="preserve" fill="#ffffff" fill-rule="nonzero" stroke="none" stroke-width="1" stroke-linecap="butt" stroke-linejoin="miter" stroke-miterlimit="10" stroke-dasharray="" stroke-dashoffset="0" font-family="Sans Serif" font-weight="normal" text-anchor="start" style="mix-blend-mode: normal"><tspan x="0" dy="0">An example of an assignment you would get.</tspan></text></g></g></svg>