<svg version="1.1" xmlns="http://www.w3.org/2000/svg" xmlns:xlink="http://www.w3.org/1999/xlink" width="276" height="379.00001" viewBox="0,0,276,379.00001"><g transform="translate(-502,-210.5)"><g data-paper-data="{&quot;isPaintingLayer&quot;:true}" fill-rule="nonzero" stroke="none" stroke-linecap="butt" stroke-linejoin="miter" stroke-miterlimit="10" stroke-dasharray="" stroke-dashoffset="0" style="mix-blend-mode: normal"><path d="M502,586.04206c0,-36.58375 0,-351.53906 0,-372.11116c0,-2.08773 1.3417,-3.4309 3.83707,-3.4309c31.75695,0 250.36288,0 268.29009,0c2.30671,0 3.87284,1.21317 3.87284,3.5018c0,36.78499 0,351.40358 0,372.04027c0,2.10345 -1.56613,3.45794 -3.87284,3.45794c-17.92721,0 -236.53314,0 -268.29009,0c-2.49538,0 -3.83707,-1.19767 -3.83707,-3.45794z" fill-opacity="0.8549" fill="#000000" stroke-width="0"/><text transform="translate(582.23888,238.40241) scale(0.5,0.5)" font-size="40" xml:space="preserve" fill="#ffffff" fill-rule="nonzero" stroke="none" stroke-width="1" stroke-linecap="butt" stroke-linejoin="miter" stroke-miterlimit="10" stroke-dasharray="" stroke-dashoffset="0" font-family="Sans Serif" font-weight="normal" text-anchor="start" style="mix-blend-mode: normal"><tspan x="0" dy="0">Assignment</tspan></text><g stroke-width="0"><path d="M604.34166,481.01793c0,0 0,-155.39103 0,-177.68493c0,-4.0512 3.64541,-9.55013 9.64805,-9.55013c24.82539,0 89.96979,0 104.30844,0c5.45069,0 10.6789,5.17937 10.6789,11.08943c0,19.59127 0,128.44984 0,164.52748c0,7.29827 -4.81564,11.61815 -9.93122,11.61815c-17.38531,0 -114.70417,0 -114.70417,0z" fill="#002f2f"/><path d="M551.02294,497.41328c0,-33.3843 0,-151.21775 0,-169.69024c0,-4.77143 3.54845,-8.74097 9.41957,-8.74097c25.42355,0 94.40031,0 107.40147,0c4.13906,0 7.81435,4.25074 7.81435,9.29424c0,18.89857 0,135.92771 0,169.15348c0,5.57218 -3.38063,8.78735 -7.25359,8.78735c-12.7435,0 -83.17162,0 -108.39351,0c-5.61398,0 -8.98829,-3.22114 -8.98829,-8.80386z" fill="#006565"/></g></g></g></svg>